<?xml version="1.0" standalone="no"?>
<!DOCTYPE svg PUBLIC "-//W3C//DTD SVG 20010904//EN"
 "http://www.w3.org/TR/2001/REC-SVG-20010904/DTD/svg10.dtd">
<svg version="1.0" xmlns="http://www.w3.org/2000/svg"
 width="733.000000pt" height="733.000000pt" viewBox="0 0 733.000000 733.000000"
 preserveAspectRatio="xMidYMid meet">
<metadata>
Created by potrace 1.11, written by Peter Selinger 2001-2013
</metadata>
<g transform="translate(0.000000,733.000000) scale(0.100000,-0.100000)"
fill="#000000" stroke="none">
<path d="M4835 5370 c0 -1048 1 -1476 2 -953 2 524 2 1382 0 1905 -1 524 -2
96 -2 -952z"/>
<path d="M4855 7260 c3 -5 8 -10 11 -10 2 0 4 5 4 10 0 6 -5 10 -11 10 -5 0
-7 -4 -4 -10z"/>
<path d="M4915 7260 c3 -5 8 -10 11 -10 2 0 4 5 4 10 0 6 -5 10 -11 10 -5 0
-7 -4 -4 -10z"/>
<path d="M4946 7261 c-5 -8 63 -5 71 3 2 2 -12 4 -31 4 -20 0 -38 -3 -40 -7z"/>
<path d="M5035 7260 c-3 -5 -1 -10 4 -10 6 0 11 5 11 10 0 6 -2 10 -4 10 -3 0
-8 -4 -11 -10z"/>
<path d="M5066 7261 c-3 -4 4 -7 14 -6 27 2 33 10 10 12 -11 1 -22 -2 -24 -6z"/>
<path d="M5034 5197 l1 -2044 -100 101 -100 101 3 53 c2 28 0 52 -5 52 -4 0
-7 -20 -5 -45 3 -26 0 -45 -6 -45 -6 0 -12 3 -14 8 -11 26 -182 134 -293 187
-130 61 -228 95 -325 114 -30 6 -66 13 -80 16 -36 8 -126 16 -196 18 -34 1
-57 5 -50 9 6 5 1 8 -14 9 -14 0 -33 2 -42 4 -10 2 -18 -1 -18 -5 0 -5 10 -11
23 -13 12 -2 -9 -5 -48 -7 -88 -3 -104 -5 -201 -25 -350 -72 -676 -276 -881
-552 -29 -40 -53 -77 -53 -82 0 -6 -4 -11 -8 -11 -14 0 -117 -217 -147 -307
-48 -147 -64 -269 -61 -453 2 -91 6 -172 9 -180 3 -8 8 -28 10 -45 12 -83 71
-253 123 -356 60 -121 211 -326 279 -380 6 -5 23 -20 39 -34 17 -14 45 -38 64
-53 19 -15 41 -33 48 -40 7 -6 17 -12 22 -12 6 0 12 -4 14 -8 4 -12 131 -84
213 -121 39 -18 79 -36 90 -41 11 -5 58 -21 105 -34 l85 -25 -55 -1 c-30 0
-86 -2 -125 -4 -120 -7 -306 -16 -405 -21 -216 -9 -337 -16 -370 -20 -19 -2
-80 -7 -135 -10 -55 -3 -111 -7 -125 -10 -14 -2 -61 -7 -105 -10 -44 -3 -98
-7 -120 -10 -22 -2 -76 -7 -120 -10 -44 -3 -91 -8 -105 -10 -14 -2 -50 -6 -80
-10 -30 -3 -71 -8 -90 -10 -19 -3 -62 -7 -95 -10 -33 -3 -87 -10 -120 -15 -33
-5 -80 -12 -105 -15 -25 -3 -72 -10 -105 -16 -33 -7 -69 -13 -80 -15 -11 -1
-60 -10 -110 -19 -134 -24 -138 -24 -165 -30 -14 -3 -38 -7 -55 -10 -16 -2
-50 -9 -75 -16 -25 -6 -55 -13 -68 -15 -36 -7 -105 -36 -124 -51 -49 -43 35
-68 292 -88 172 -14 1012 -20 1359 -10 149 5 194 1 130 -10 -13 -2 -37 -7 -54
-10 -16 -3 -43 -8 -60 -10 -16 -3 -41 -7 -55 -10 -14 -2 -41 -7 -60 -10 -19
-3 -42 -8 -50 -10 -8 -3 -35 -7 -60 -11 -54 -7 -78 -11 -106 -18 -12 -2 -39
-7 -60 -10 -22 -4 -61 -11 -89 -16 -64 -12 -101 -19 -145 -26 -19 -3 -43 -7
-53 -10 -10 -3 -30 -7 -45 -9 -15 -2 -79 -13 -142 -24 -63 -11 -131 -23 -150
-26 -19 -3 -42 -8 -50 -10 -8 -2 -33 -7 -55 -10 -58 -8 -104 -16 -129 -21 -33
-6 -238 -43 -271 -49 -16 -3 -43 -7 -60 -10 -31 -5 -40 -7 -110 -20 -22 -4
-51 -9 -65 -11 -14 -3 -48 -9 -76 -15 -55 -11 -79 -15 -136 -23 -21 -3 -59
-11 -85 -17 -27 -6 -59 -13 -73 -15 -128 -23 -61 -29 307 -28 317 1 526 7 688
18 33 3 125 8 205 11 234 10 389 20 675 40 70 4 175 13 260 21 33 3 76 7 95 9
83 6 207 17 235 20 17 2 59 7 95 11 36 3 79 8 95 9 17 2 66 6 110 10 44 3 87
8 95 10 8 2 47 7 85 10 39 4 90 9 115 11 79 8 143 13 235 19 50 4 110 8 135
10 25 2 122 7 215 10 218 7 311 13 355 25 19 5 60 12 90 15 30 4 58 9 61 11 4
2 24 6 45 10 45 6 93 14 114 19 8 2 32 4 53 4 20 1 37 6 37 11 0 10 -1277 7
-1395 -3 -27 -3 -90 -8 -140 -11 -49 -4 -106 -9 -125 -11 -19 -2 -73 -6 -120
-10 -47 -3 -96 -8 -110 -10 -14 -2 -61 -6 -105 -9 -82 -5 -64 6 35 20 25 3 54
8 65 10 11 3 35 7 54 10 18 3 43 8 55 10 11 2 64 11 116 19 52 8 115 19 140
25 25 5 61 12 80 15 19 2 87 14 150 25 63 12 165 29 225 40 61 10 148 26 195
34 47 9 99 18 115 21 17 3 46 8 65 11 19 3 46 8 60 10 14 3 36 7 50 9 14 3 39
8 55 11 39 6 294 51 365 64 30 5 92 17 138 26 45 8 92 17 105 19 121 21 206
36 227 40 14 3 38 8 53 10 57 11 183 43 217 56 40 16 53 27 63 51 5 14 -3 20
-46 32 -29 8 -86 18 -127 21 -41 4 -93 9 -115 11 -52 7 -246 13 -463 14 -96 1
-172 4 -169 6 2 2 31 11 63 19 32 9 73 22 91 30 17 8 34 15 38 15 14 0 144 65
215 108 275 166 497 439 601 737 38 110 50 162 68 300 4 32 7 992 7 2132 -1
1140 1 2073 4 2073 11 -1 121 -40 133 -47 6 -4 17 -8 22 -9 6 -1 54 -22 109
-48 105 -49 264 -149 273 -172 3 -8 10 -14 16 -14 33 0 146 -148 272 -355 103
-168 194 -271 277 -311 85 -41 123 -58 131 -56 4 1 26 -2 50 -8 35 -7 225 -24
262 -22 103 4 309 24 377 35 20 3 36 17 22 18 -5 0 -18 2 -29 3 -11 2 -47 6
-80 10 -153 19 -308 81 -404 161 -57 47 -164 177 -193 235 -7 14 -20 36 -29
50 -9 14 -56 102 -104 195 -127 246 -212 397 -227 403 -5 2 -8 8 -8 14 0 30
-225 288 -251 288 -5 0 -9 4 -9 8 0 5 -25 26 -56 48 -30 21 -61 44 -67 49 -19
17 -203 128 -302 182 -49 27 -110 61 -135 75 -35 20 -321 138 -334 138 -2 0
-2 -920 -2 -2043z"/>
<path d="M3402 3718 c-130 -23 -325 -88 -422 -141 -162 -88 -323 -211 -413
-315 -18 -20 -39 -44 -47 -53 -57 -66 -106 -140 -159 -241 -28 -54 -47 -98
-42 -98 5 0 16 17 25 38 84 199 278 426 483 563 166 110 302 171 477 213 119
29 150 34 276 42 52 3 97 8 100 11 11 11 -183 -3 -278 -19z"/>
<path d="M3692 3735 c8 -9 88 -12 88 -3 0 4 -21 8 -47 8 -25 0 -44 -2 -41 -5z"/>
<path d="M2277 2778 c-38 -121 -41 -135 -29 -123 6 6 18 39 27 75 9 35 23 76
31 92 16 31 17 38 6 38 -5 0 -20 -37 -35 -82z"/>
<path d="M2237 2633 c-17 -30 -42 -293 -28 -293 4 0 8 28 9 63 1 34 5 80 8
102 12 84 15 101 20 118 5 17 -1 24 -9 10z"/>
<path d="M2203 2315 c0 -8 4 -15 9 -15 4 0 8 4 8 9 0 6 -4 12 -8 15 -5 3 -9
-1 -9 -9z"/>
<path d="M2205 2245 c12 -105 28 -195 35 -195 4 0 1 30 -6 68 -7 37 -13 85
-14 107 0 22 -5 47 -10 55 -7 11 -9 0 -5 -35z"/>
<path d="M2240 2013 c5 -16 18 -59 30 -98 33 -105 133 -300 200 -390 84 -113
212 -239 315 -313 73 -51 104 -72 109 -72 3 0 27 -13 54 -30 101 -62 424 -172
444 -152 5 5 3 9 -4 10 -41 3 -125 23 -168 39 -8 3 -20 7 -25 8 -6 2 -56 21
-113 45 -304 124 -565 363 -712 652 -50 97 -100 226 -115 296 -3 17 -10 32
-15 32 -5 0 -5 -12 0 -27z"/>
</g>
</svg>
